<?xml version="1.0" encoding="utf-8"?>
<svg id="master-artboard" viewBox="0 0 827.058837890625 936.4705810546875" xmlns="http://www.w3.org/2000/svg" width="827.058837890625px" height="936.4705810546875px" xmlns:xlink="http://www.w3.org/1999/xlink"><rect id="ee-background" x="0" y="0" width="827.058837890625" height="936.4705810546875" style="fill: white; fill-opacity: 0; pointer-events: none;"/><defs><linearGradient id="linear-gradient" x1="700" y1="324.8" x2="700" y2="949.9" gradientUnits="userSpaceOnUse"><stop offset="0"/><stop offset="0.54" stop-color="#430d31"/><stop offset="0.64" stop-color="#320a25"/><stop offset="0.87" stop-color="#0e030a"/><stop offset="1"/></linearGradient><clipPath id="clip-path"><path d="M 0 0 H 1400 V 980 H 0 V 0 Z" id="_Clipping_Path_" data-name="&lt;Clipping Path&gt;" class="cls-1" style="fill: none;"/></clipPath><radialGradient id="radial-gradient" cx="1033.34" cy="430.16" r="395.38" gradientTransform="translate(-9.4 -134.31) rotate(9.06)" gradientUnits="userSpaceOnUse"><stop offset="0" stop-color="#f15a24"/><stop offset="0.02" stop-color="#ee5626" stop-opacity="0.96"/><stop offset="0.13" stop-color="#db4233" stop-opacity="0.74"/><stop offset="0.24" stop-color="#cb313e" stop-opacity="0.54"/><stop offset="0.36" stop-color="#bd2248" stop-opacity="0.37"/><stop offset="0.47" stop-color="#b2154f" stop-opacity="0.24"/><stop offset="0.59" stop-color="#a90c55" stop-opacity="0.13"/><stop offset="0.72" stop-color="#a3055a" stop-opacity="0.06"/><stop offset="0.85" stop-color="#9f015c" stop-opacity="0.01"/><stop offset="1" stop-color="#9e005d" stop-opacity="0"/></radialGradient><radialGradient id="radial-gradient-2" cx="659.25" cy="261.06" r="623.23" gradientTransform="translate(-40.68 -77.53) rotate(9.06)" xlink:href="#radial-gradient"/><radialGradient id="radial-gradient-3" cx="141.45" cy="629.05" r="825.05" gradientTransform="translate(-90 23)" xlink:href="#radial-gradient"/><radialGradient id="radial-gradient-4" cx="1385.66" cy="600.09" r="623.23" gradientTransform="translate(21.74 -187.65) rotate(9.06)" xlink:href="#radial-gradient"/><radialGradient id="radial-gradient-5" cx="490.25" cy="556.49" r="422.27" gradientTransform="translate(3.72 -47.24) rotate(9.06)" xlink:href="#radial-gradient"/><linearGradient id="linear-gradient-2" x1="710.24" y1="434.14" x2="710.24" y2="1203.49" gradientUnits="userSpaceOnUse"><stop offset="0" stop-color="#1a1a1a"/><stop offset="0.12" stop-color="#262626"/><stop offset="0.29" stop-color="#303030"/><stop offset="0.51" stop-color="#333"/><stop offset="0.65" stop-color="#363636"/><stop offset="0.75" stop-color="#404040"/><stop offset="0.84" stop-color="#505050"/><stop offset="0.93" stop-color="#676767"/><stop offset="1" stop-color="gray"/></linearGradient><linearGradient id="Brick_2" x1="710.24" y1="386.83" x2="710.24" y2="442.91" gradientUnits="userSpaceOnUse"><stop offset="0" stop-color="#efebe7"/><stop offset="0.49" stop-color="#e9e4db"/><stop offset="1" stop-color="#c9cacc"/></linearGradient><linearGradient id="linear-gradient-3" x1="1021.18" y1="434.83" x2="1021.18" y2="362.7" xlink:href="#linear-gradient-2"/><linearGradient id="linear-gradient-4" x1="917.2" y1="434.83" x2="917.2" y2="362.7" xlink:href="#linear-gradient-2"/><linearGradient id="linear-gradient-5" x1="796.82" y1="434.83" x2="796.82" y2="362.7" xlink:href="#linear-gradient-2"/><linearGradient id="linear-gradient-6" x1="676.44" y1="434.83" x2="676.44" y2="362.7" xlink:href="#linear-gradient-2"/><linearGradient id="linear-gradient-7" x1="556.07" y1="434.83" x2="556.07" y2="362.7" xlink:href="#linear-gradient-2"/><linearGradient id="linear-gradient-8" x1="435.69" y1="434.83" x2="435.69" y2="362.7" xlink:href="#linear-gradient-2"/><linearGradient id="Brick_2-2" x1="3908.43" y1="536.6" x2="3895.1" y2="489.93" gradientTransform="matrix(-0.97, -0.26, 0.26, -0.97, 4315.99, 1747.54)" xlink:href="#Brick_2"/><linearGradient id="linear-gradient-9" x1="3601.26" y1="603.59" x2="3650.59" y2="718.92" gradientTransform="matrix(-1, 0.09, -0.09, -1, 4611.05, 413.28)" xlink:href="#linear-gradient-2"/><linearGradient id="linear-gradient-10" x1="3699.8" y1="561.44" x2="3749.13" y2="676.77" gradientTransform="matrix(-1, 0.09, -0.09, -1, 4611.05, 413.28)" xlink:href="#linear-gradient-2"/><linearGradient id="linear-gradient-11" x1="3809.36" y1="514.58" x2="3858.69" y2="629.91" gradientTransform="matrix(-1, 0.09, -0.09, -1, 4611.05, 413.28)" xlink:href="#linear-gradient-2"/><linearGradient id="linear-gradient-12" x1="3918.92" y1="467.71" x2="3968.25" y2="583.05" gradientTransform="matrix(-1, 0.09, -0.09, -1, 4611.05, 413.28)" xlink:href="#linear-gradient-2"/><linearGradient id="linear-gradient-13" x1="4028.48" y1="420.85" x2="4077.81" y2="536.18" gradientTransform="matrix(-1, 0.09, -0.09, -1, 4611.05, 413.28)" xlink:href="#linear-gradient-2"/><linearGradient id="linear-gradient-14" x1="4138.03" y1="373.99" x2="4187.37" y2="489.32" gradientTransform="matrix(-1, 0.09, -0.09, -1, 4611.05, 413.28)" xlink:href="#linear-gradient-2"/><linearGradient id="linear-gradient-15" x1="387.25" y1="466.17" x2="897.23" y2="32.69" gradientUnits="userSpaceOnUse"><stop offset="0" stop-color="#333"/><stop offset="0.13" stop-color="#404040"/><stop offset="0.29" stop-color="#4a4a4a"/><stop offset="0.51" stop-color="#4d4d4d"/><stop offset="0.67" stop-color="#505050"/><stop offset="0.79" stop-color="#5a5a5a"/><stop offset="0.9" stop-color="#6a6a6a"/><stop offset="1" stop-color="gray"/></linearGradient><radialGradient id="radial-gradient-6" cx="408.99" cy="367.49" r="12.57" gradientUnits="userSpaceOnUse"><stop offset="0" stop-color="#231f20" stop-opacity="0"/><stop offset="0.37" stop-color="#231f20" stop-opacity="0.09"/><stop offset="0.67" stop-color="#231f20" stop-opacity="0.38"/><stop offset="0.94" stop-color="#231f20" stop-opacity="0.86"/><stop offset="1" stop-color="#231f20"/></radialGradient><radialGradient id="radial-gradient-7" cx="408.99" cy="421.35" r="12.57" xlink:href="#radial-gradient-6"/><radialGradient id="radial-gradient-8" cx="500.93" cy="421.35" r="12.57" xlink:href="#radial-gradient-6"/><radialGradient id="radial-gradient-9" cx="408.99" cy="367.49" r="8.74" xlink:href="#Brick_2"/><radialGradient id="radial-gradient-10" cx="408.99" cy="421.35" r="8.74" xlink:href="#Brick_2"/><radialGradient id="radial-gradient-11" cx="500.93" cy="421.35" r="8.74" xlink:href="#Brick_2"/><linearGradient id="linear-gradient-16" x1="363.35" y1="391.43" x2="391.48" y2="347.68" xlink:href="#radial-gradient-6"/><linearGradient id="linear-gradient-17" x1="543.65" y1="416.4" x2="532.65" y2="429.15" gradientUnits="userSpaceOnUse"><stop offset="0" stop-color="#231f20" stop-opacity="0"/><stop offset="0.38" stop-color="#231f20" stop-opacity="0.47"/><stop offset="0.72" stop-color="#231f20"/></linearGradient><linearGradient id="linear-gradient-18" x1="465.94" y1="349.36" x2="454.94" y2="362.11" xlink:href="#linear-gradient-17"/><linearGradient id="Brick_2-3" x1="569.25" y1="665.62" x2="569.25" y2="531.15" xlink:href="#Brick_2"/><linearGradient id="Brick_2-4" x1="607.62" y1="665.62" x2="607.62" y2="531.15" xlink:href="#Brick_2"/><linearGradient id="Brick_2-5" x1="649.01" y1="665.62" x2="649.01" y2="531.15" xlink:href="#Brick_2"/><linearGradient id="Brick_2-6" x1="703.15" y1="665.62" x2="703.15" y2="531.15" xlink:href="#Brick_2"/><linearGradient id="Brick_2-7" x1="763.26" y1="665.62" x2="763.26" y2="531.15" xlink:href="#Brick_2"/><linearGradient id="Brick_2-8" x1="826.93" y1="665.62" x2="826.93" y2="531.15" xlink:href="#Brick_2"/><style id="ee-google-fonts">@import url(https://fonts.googleapis.com/css?family=Audiowide:400);</style></defs><title>EEZY</title><path class="cls-10" d="M990.11,579.49H966.25V741.43h23.86a11.3,11.3,0,0,0,11.45-11.14V590.63A11.3,11.3,0,0,0,990.11,579.49Z" style="fill: rgb(10, 7, 9);" transform="matrix(1.1897324323654175, 0, 0, 1.1897324323654175, -423.14906573295593, -120.08724975585938)"/><path class="cls-10" d="M433.75,579.49H409.89a11.3,11.3,0,0,0-11.45,11.14V730.29a11.3,11.3,0,0,0,11.45,11.14h23.86Z" style="fill: rgb(10, 7, 9);" transform="matrix(1.1897324323654175, 0, 0, 1.1897324323654175, -423.14906573295593, -120.08724975585938)"/><path d="M 379.429993 444.880005 H 1041.039978 V 875.540009 H 379.429993 V 444.880005 Z" class="cls-11" style="fill: url('#linear-gradient-2');" transform="matrix(1.1897324323654175, 0, 0, 1.1897324323654175, -423.14906573295593, -120.08724975585938)"/><path d="M 426.429993 491.880005 H 994.039978 V 828.540009 H 426.429993 V 491.880005 Z" class="cls-12" style="opacity: 0.3; fill: rgb(17, 8, 8);" transform="matrix(1.1897324323654175, 0, 0, 1.1897324323654175, -423.14906573295593, -120.08724975585938)"/><path d="M 379.429993 385.01001 H 1041.039978 V 444.890011 H 379.429993 V 385.01001 Z" class="cls-13" style="fill: url('#Brick_2');" transform="matrix(1.1897324323654175, 0, 0, 1.1897324323654175, -423.14906573295593, -120.08724975585938)"/><path d="M 1029.2099609375 385 L 1001.3200073242188 444.8800048828125 L 1041.050048828125 444.8800048828125 L 1041.050048828125 385 L 1029.2099609375 385 Z" class="cls-14" style="fill: url('#linear-gradient-3');" transform="matrix(1.1897324323654175, 0, 0, 1.1897324323654175, -423.14906573295593, -120.08724975585938)"/><path d="M 880.9400024414062 444.8800048828125 L 925.5700073242188 444.8800048828125 L 953.4600219726562 385 L 908.8400268554688 385 L 880.9400024414062 444.8800048828125 Z" class="cls-15" style="fill: url('#linear-gradient-4');" transform="matrix(1.1897324323654175, 0, 0, 1.1897324323654175, -423.14906573295593, -120.08724975585938)"/><path d="M 760.5599975585938 444.8800048828125 L 805.1900024414062 444.8800048828125 L 833.0800170898438 385 L 788.4600219726562 385 L 760.5599975585938 444.8800048828125 Z" class="cls-16" style="fill: url('#linear-gradient-5');" transform="matrix(1.1897324323654175, 0, 0, 1.1897324323654175, -423.14906573295593, -120.08724975585938)"/><path d="M 640.1799926757812 444.8800048828125 L 684.8099975585938 444.8800048828125 L 712.7100219726562 385 L 668.0800170898438 385 L 640.1799926757812 444.8800048828125 Z" class="cls-17" style="fill: url('#linear-gradient-6');" transform="matrix(1.1897324323654175, 0, 0, 1.1897324323654175, -423.14906573295593, -120.08724975585938)"/><path d="M 519.7999877929688 444.8800048828125 L 564.4299926757812 444.8800048828125 L 592.3300170898438 385 L 547.7000122070312 385 L 519.7999877929688 444.8800048828125 Z" class="cls-18" style="fill: url('#linear-gradient-7');" transform="matrix(1.1897324323654175, 0, 0, 1.1897324323654175, -423.14906573295593, -120.08724975585938)"/><path d="M 399.42999267578125 444.8800048828125 L 444.04998779296875 444.8800048828125 L 471.95001220703125 385 L 427.32000732421875 385 L 399.42999267578125 444.8800048828125 Z" class="cls-19" style="fill: url('#linear-gradient-8');" transform="matrix(1.1897324323654175, 0, 0, 1.1897324323654175, -423.14906573295593, -120.08724975585938)"/><path d="M 349.23999 213.789993 H 1010.849976 V 273.669994 H 349.23999 V 213.789993 Z" class="cls-20" transform="matrix(1.1179827451705933, -0.4069124460220337, 0.4069124460220337, 1.1179827451705933, -473.5342586040497, 174.1216583251953)" style="fill: url('#Brick_2-2');"/><path d="M 990.030029296875 162.77000427246094 L 943.3400268554688 116.04000091552734 L 980.6599731445312 102.45999908447266 L 1001.1400146484375 158.72000122070312 L 990.030029296875 162.77000427246094 Z" class="cls-21" style="fill: url('#linear-gradient-9');" transform="matrix(1.1897324323654175, 0, 0, 1.1897324323654175, -423.14906573295593, -120.08724975585938)"/><path d="M 830.219970703125 157.22000122070312 L 872.1500244140625 141.9499969482422 L 918.8400268554688 188.67999267578125 L 876.9099731445312 203.94000244140625 L 830.219970703125 157.22000122070312 Z" class="cls-22" style="fill: url('#linear-gradient-10');" transform="matrix(1.1897324323654175, 0, 0, 1.1897324323654175, -423.14906573295593, -120.08724975585938)"/><path d="M 717.0999755859375 198.38999938964844 L 759.030029296875 183.1199951171875 L 805.719970703125 229.85000610351562 L 763.7899780273438 245.11000061035156 L 717.0999755859375 198.38999938964844 Z" class="cls-23" style="fill: url('#linear-gradient-11');" transform="matrix(1.1897324323654175, 0, 0, 1.1897324323654175, -423.14906573295593, -120.08724975585938)"/><path d="M 603.97998046875 239.55999755859375 L 645.9099731445312 224.3000030517578 L 692.6099853515625 271.0199890136719 L 650.6699829101562 286.2900085449219 L 603.97998046875 239.55999755859375 Z" class="cls-24" style="fill: url('#linear-gradient-12');" transform="matrix(1.1897324323654175, 0, 0, 1.1897324323654175, -423.14906573295593, -120.08724975585938)"/><path d="M 490.8599853515625 280.7300109863281 L 532.7999877929688 265.4700012207031 L 579.489990234375 312.19000244140625 L 537.5499877929688 327.4599914550781 L 490.8599853515625 280.7300109863281 Z" class="cls-25" style="fill: url('#linear-gradient-13');" transform="matrix(1.1897324323654175, 0, 0, 1.1897324323654175, -423.14906573295593, -120.08724975585938)"/><path d="M 377.739990234375 321.8999938964844 L 419.67999267578125 306.6400146484375 L 466.3699951171875 353.3699951171875 L 424.42999267578125 368.6300048828125 L 377.739990234375 321.8999938964844 Z" class="cls-26" style="fill: url('#linear-gradient-14');" transform="matrix(1.1897324323654175, 0, 0, 1.1897324323654175, -423.14906573295593, -120.08724975585938)"/><path d="M 379.44000244140625 347.80999755859375 L 462 347.80999755859375 L 559.2000122070312 445.0199890136719 L 379.44000244140625 445.0199890136719 L 379.44000244140625 347.80999755859375 Z" class="cls-27" style="fill: url('#linear-gradient-15');" transform="matrix(1.1897324323654175, 0, 0, 1.1897324323654175, -423.14906573295593, -120.08724975585938)"/><path d="M 421.55999 367.48999 A 12.57 12.57 0 0 1 408.98999 380.05999 A 12.57 12.57 0 0 1 396.419991 367.48999 A 12.57 12.57 0 0 1 408.98999 354.919991 A 12.57 12.57 0 0 1 421.55999 367.48999 Z" class="cls-28" style="fill: url('#radial-gradient-6');" transform="matrix(1.1897324323654175, 0, 0, 1.1897324323654175, -423.14906573295593, -120.08724975585938)"/><path d="M 421.55999 421.350006 A 12.57 12.57 0 0 1 408.98999 433.920006 A 12.57 12.57 0 0 1 396.419991 421.350006 A 12.57 12.57 0 0 1 408.98999 408.780006 A 12.57 12.57 0 0 1 421.55999 421.350006 Z" class="cls-29" style="fill: url('#radial-gradient-7');" transform="matrix(1.1897324323654175, 0, 0, 1.1897324323654175, -423.14906573295593, -120.08724975585938)"/><path d="M 513.499992 421.350006 A 12.57 12.57 0 0 1 500.929993 433.920006 A 12.57 12.57 0 0 1 488.359993 421.350006 A 12.57 12.57 0 0 1 500.929993 408.780006 A 12.57 12.57 0 0 1 513.499992 421.350006 Z" class="cls-30" style="fill: url('#radial-gradient-8');" transform="matrix(1.1897324323654175, 0, 0, 1.1897324323654175, -423.14906573295593, -120.08724975585938)"/><path d="M 417.72999 367.48999 A 8.74 8.74 0 0 1 408.98999 376.22999 A 8.74 8.74 0 0 1 400.24999 367.48999 A 8.74 8.74 0 0 1 408.98999 358.74999 A 8.74 8.74 0 0 1 417.72999 367.48999 Z" class="cls-31" style="fill: url('#radial-gradient-9');" transform="matrix(1.1897324323654175, 0, 0, 1.1897324323654175, -423.14906573295593, -120.08724975585938)"/><path d="M 417.72999 421.350006 A 8.74 8.74 0 0 1 408.98999 430.090006 A 8.74 8.74 0 0 1 400.24999 421.350006 A 8.74 8.74 0 0 1 408.98999 412.610006 A 8.74 8.74 0 0 1 417.72999 421.350006 Z" class="cls-32" style="fill: url('#radial-gradient-10');" transform="matrix(1.1897324323654175, 0, 0, 1.1897324323654175, -423.14906573295593, -120.08724975585938)"/><path d="M 509.669992 421.350006 A 8.74 8.74 0 0 1 500.929993 430.090006 A 8.74 8.74 0 0 1 492.189993 421.350006 A 8.74 8.74 0 0 1 500.929993 412.610006 A 8.74 8.74 0 0 1 509.669992 421.350006 Z" class="cls-33" style="fill: url('#radial-gradient-11');" transform="matrix(1.1897324323654175, 0, 0, 1.1897324323654175, -423.14906573295593, -120.08724975585938)"/><path d="M 379.44000244140625 347.80999755859375 L 374.3399963378906 371.010009765625 L 379.44000244140625 385 L 379.44000244140625 347.80999755859375 Z" class="cls-34" style="fill: url('#linear-gradient-16');" transform="matrix(1.1897324323654175, 0, 0, 1.1897324323654175, -423.14906573295593, -120.08724975585938)"/><path d="M 559.0599975585938 444.8800048828125 L 590.6300048828125 444.8800048828125 L 511.2799987792969 385 L 499.19000244140625 385 L 559.0599975585938 444.8800048828125 Z" class="cls-35" style="fill: url('#linear-gradient-17');" transform="matrix(1.1897324323654175, 0, 0, 1.1897324323654175, -423.14906573295593, -120.08724975585938)"/><path d="M 467.2300109863281 353.04998779296875 L 468.3800048828125 352.6300048828125 L 462 347.80999755859375 L 467.2300109863281 353.04998779296875 Z" class="cls-36" style="fill: url('#linear-gradient-18');" transform="matrix(1.1897324323654175, 0, 0, 1.1897324323654175, -423.14906573295593, -120.08724975585938)"/><path d="M 609.5653076171875 624.8651733398438 L 606.4953002929688 624.8651733398438 L 606.4953002929688 614.8551635742188 L 601.0952758789062 624.3651733398438 C 600.9619750976562 624.6051635742188 600.7752685546875 624.7885131835938 600.5352783203125 624.9151611328125 C 600.2952880859375 625.03515625 600.0386352539062 625.0951538085938 599.7653198242188 625.0951538085938 C 599.4985961914062 625.0951538085938 599.251953125 625.03515625 599.0252685546875 624.9151611328125 C 598.7919311523438 624.7885131835938 598.608642578125 624.6051635742188 598.4752807617188 624.3651733398438 L 593.0552978515625 614.8551635742188 L 593.0552978515625 624.8651733398438 L 590.0053100585938 624.8651733398438 L 590.0053100585938 609.3651733398438 C 590.0053100585938 609.0118408203125 590.108642578125 608.698486328125 590.3153076171875 608.4251708984375 C 590.52197265625 608.15185546875 590.7919311523438 607.968505859375 591.1253051757812 607.8751831054688 C 591.2919311523438 607.8351440429688 591.4586181640625 607.8218383789062 591.6253051757812 607.8351440429688 C 591.7852783203125 607.8418579101562 591.9419555664062 607.8751831054688 592.0952758789062 607.9351806640625 C 592.2485961914062 607.9951782226562 592.3886108398438 608.0784912109375 592.5153198242188 608.1851806640625 C 592.6353149414062 608.2918701171875 592.7386474609375 608.4185180664062 592.8253173828125 608.565185546875 L 599.7653198242188 620.6251831054688 L 606.7052612304688 608.565185546875 C 606.8853149414062 608.2651977539062 607.1319580078125 608.05517578125 607.4453125 607.9351806640625 C 607.7653198242188 607.8085327148438 608.0952758789062 607.7885131835938 608.435302734375 607.8751831054688 C 608.7686157226562 607.968505859375 609.0386352539062 608.15185546875 609.2453002929688 608.4251708984375 C 609.4586181640625 608.698486328125 609.5653076171875 609.0118408203125 609.5653076171875 609.3651733398438 L 609.5653076171875 624.8651733398438 ZM 626.4600830078125 620.5851440429688 C 626.4600830078125 621.11181640625 626.3933715820312 621.5818481445312 626.2600708007812 621.9951782226562 C 626.126708984375 622.4151611328125 625.9500732421875 622.78515625 625.7300415039062 623.1051635742188 C 625.5167236328125 623.4185180664062 625.2633666992188 623.6851806640625 624.9700317382812 623.9051513671875 C 624.6834106445312 624.1318359375 624.3800659179688 624.315185546875 624.06005859375 624.4552001953125 C 623.7467041015625 624.5951538085938 623.4267578125 624.698486328125 623.1000366210938 624.7651977539062 C 622.7800903320312 624.8318481445312 622.473388671875 624.8651733398438 622.1800537109375 624.8651733398438 L 616.6900634765625 624.8651733398438 C 616.2633666992188 624.8651733398438 615.800048828125 624.7918701171875 615.300048828125 624.6452026367188 C 614.800048828125 624.4918212890625 614.340087890625 624.2451782226562 613.9200439453125 623.9051513671875 C 613.493408203125 623.5718383789062 613.13671875 623.1318359375 612.8500366210938 622.5851440429688 C 612.5634155273438 622.045166015625 612.4200439453125 621.3784790039062 612.4200439453125 620.5851440429688 L 612.4200439453125 616.4651489257812 C 612.4200439453125 615.6851806640625 612.5634155273438 615.0218505859375 612.8500366210938 614.4751586914062 C 613.13671875 613.9351806640625 613.493408203125 613.4951782226562 613.9200439453125 613.1551513671875 C 614.340087890625 612.815185546875 614.800048828125 612.5684814453125 615.300048828125 612.4151611328125 C 615.800048828125 612.2684936523438 616.2633666992188 612.1951904296875 616.6900634765625 612.1951904296875 L 622.1800537109375 612.1951904296875 C 622.9667358398438 612.1951904296875 623.6334228515625 612.3351440429688 624.1800537109375 612.6151733398438 C 624.7267456054688 612.90185546875 625.166748046875 613.2551879882812 625.5000610351562 613.6751708984375 C 625.8333740234375 614.1018676757812 626.0767211914062 614.565185546875 626.2300415039062 615.065185546875 C 626.3834228515625 615.565185546875 626.4600830078125 616.0318603515625 626.4600830078125 616.4651489257812 L 626.4600830078125 620.5851440429688 M 623.4100341796875 616.4851684570312 C 623.4100341796875 616.065185546875 623.3067016601562 615.7518310546875 623.1000366210938 615.545166015625 C 622.88671875 615.3451538085938 622.580078125 615.2451782226562 622.1800537109375 615.2451782226562 L 616.7100830078125 615.2451782226562 C 616.3034057617188 615.2451782226562 615.9967041015625 615.3485107421875 615.7900390625 615.55517578125 C 615.5767211914062 615.7618408203125 615.4700317382812 616.065185546875 615.4700317382812 616.4651489257812 L 615.4700317382812 620.5851440429688 C 615.4700317382812 620.9851684570312 615.5767211914062 621.2918701171875 615.7900390625 621.5051879882812 C 615.9967041015625 621.7118530273438 616.3034057617188 621.815185546875 616.7100830078125 621.815185546875 L 622.1800537109375 621.815185546875 C 622.5933837890625 621.815185546875 622.9033813476562 621.7118530273438 623.1100463867188 621.5051879882812 C 623.31005859375 621.2918701171875 623.4100341796875 620.9851684570312 623.4100341796875 620.5851440429688 L 623.4100341796875 616.4851684570312 ZM 644.1705322265625 612.1951904296875 C 643.8238525390625 613.2684936523438 643.4205322265625 614.3251953125 642.9605712890625 615.3651733398438 C 642.5005493164062 616.3984985351562 641.9705200195312 617.3884887695312 641.3705444335938 618.3351440429688 C 640.7772216796875 619.275146484375 640.1105346679688 620.1452026367188 639.3705444335938 620.9451904296875 C 638.6305541992188 621.7451782226562 637.8139038085938 622.4351806640625 636.9205322265625 623.0151977539062 C 636.0272216796875 623.6018676757812 635.0538940429688 624.0618286132812 634.0005493164062 624.3952026367188 C 632.9472045898438 624.7218627929688 631.8071899414062 624.8851928710938 630.58056640625 624.8851928710938 C 630.3739013671875 624.8851928710938 630.1771850585938 624.8485107421875 629.9905395507812 624.775146484375 C 629.8038940429688 624.6951904296875 629.6405639648438 624.5851440429688 629.5005493164062 624.4451904296875 C 629.3538818359375 624.3118286132812 629.243896484375 624.15185546875 629.1705322265625 623.9651489257812 C 629.0905151367188 623.78515625 629.050537109375 623.5885009765625 629.050537109375 623.3751831054688 L 629.050537109375 612.1951904296875 L 632.1005249023438 612.1951904296875 L 632.1005249023438 621.7251586914062 C 632.8405151367188 621.7251586914062 633.5538940429688 621.565185546875 634.2405395507812 621.2451782226562 C 634.9205322265625 620.9251708984375 635.5639038085938 620.5018310546875 636.1705322265625 619.9751586914062 C 636.7838745117188 619.448486328125 637.3505249023438 618.8485107421875 637.8705444335938 618.1751708984375 C 638.3905639648438 617.5018310546875 638.8538818359375 616.8118286132812 639.2605590820312 616.1051635742188 C 639.667236328125 615.3984985351562 640.0105590820312 614.7052001953125 640.29052734375 614.025146484375 C 640.5772094726562 613.3451538085938 640.79052734375 612.7351684570312 640.9305419921875 612.1951904296875 L 644.1705322265625 612.1951904296875 ZM 648.3470458984375 609.5951538085938 L 645.3070068359375 609.5951538085938 L 645.3070068359375 606.8451538085938 L 648.3470458984375 606.8451538085938 L 648.3470458984375 609.5951538085938 M 648.3470458984375 624.8651733398438 L 645.3070068359375 624.8651733398438 L 645.3070068359375 612.1951904296875 L 648.3470458984375 612.1951904296875 L 648.3470458984375 624.8651733398438 ZM 664.8984985351562 616.3952026367188 C 664.8984985351562 616.815185546875 664.8251953125 617.2684936523438 664.6785278320312 617.7551879882812 C 664.525146484375 618.2418212890625 664.28515625 618.6951904296875 663.95849609375 619.1151733398438 C 663.6251831054688 619.53515625 663.1884765625 619.8851928710938 662.6484985351562 620.1651611328125 C 662.1151733398438 620.4451904296875 661.4651489257812 620.5851440429688 660.698486328125 620.5851440429688 L 655.20849609375 620.5851440429688 L 655.20849609375 617.6951904296875 L 660.698486328125 617.6951904296875 C 661.11181640625 617.6951904296875 661.4318237304688 617.5684814453125 661.6585083007812 617.315185546875 C 661.8851928710938 617.0618286132812 661.9984741210938 616.7451782226562 661.9984741210938 616.3651733398438 C 661.9984741210938 615.9718627929688 661.871826171875 615.661865234375 661.6185302734375 615.4351806640625 C 661.3651733398438 615.20849609375 661.0584716796875 615.0951538085938 660.698486328125 615.0951538085938 L 655.20849609375 615.0951538085938 C 654.795166015625 615.0951538085938 654.4751586914062 615.2218627929688 654.2484741210938 615.4751586914062 C 654.0218505859375 615.728515625 653.9085083007812 616.0418701171875 653.9085083007812 616.4151611328125 L 653.9085083007812 620.6651611328125 C 653.9085083007812 621.0718383789062 654.03515625 621.3884887695312 654.2885131835938 621.6151733398438 C 654.5418090820312 621.8418579101562 654.8551635742188 621.9552001953125 655.228515625 621.9552001953125 L 660.698486328125 621.9552001953125 L 660.698486328125 624.8651733398438 L 655.20849609375 624.8651733398438 C 654.7818603515625 624.8651733398438 654.3251953125 624.7918701171875 653.8385009765625 624.6452026367188 C 653.351806640625 624.4918212890625 652.8984985351562 624.2518310546875 652.478515625 623.9251708984375 C 652.065185546875 623.5918579101562 651.7151489257812 623.1585083007812 651.4285278320312 622.6251831054688 C 651.1484985351562 622.0851440429688 651.0084838867188 621.4318237304688 651.0084838867188 620.6651611328125 L 651.0084838867188 616.3952026367188 C 651.0084838867188 615.968505859375 651.0818481445312 615.5118408203125 651.228515625 615.025146484375 C 651.3818359375 614.5385131835938 651.6251831054688 614.0851440429688 651.95849609375 613.6651611328125 C 652.28515625 613.2518310546875 652.718505859375 612.90185546875 653.2584838867188 612.6151733398438 C 653.7918090820312 612.3351440429688 654.4418334960938 612.1951904296875 655.20849609375 612.1951904296875 L 660.698486328125 612.1951904296875 C 661.1251831054688 612.1951904296875 661.5818481445312 612.2684936523438 662.0684814453125 612.4151611328125 C 662.55517578125 612.5684814453125 663.0084838867188 612.8118286132812 663.4285278320312 613.1452026367188 C 663.8418579101562 613.4718627929688 664.1918334960938 613.9051513671875 664.478515625 614.4451904296875 C 664.7584838867188 614.978515625 664.8984985351562 615.6284790039062 664.8984985351562 616.3952026367188 ZM 684.0576171875 621.1751708984375 C 684.0576171875 621.5485229492188 683.9943237304688 621.9518432617188 683.8676147460938 622.3851928710938 C 683.7343139648438 622.8118286132812 683.52099609375 623.20849609375 683.2276611328125 623.5751953125 C 682.934326171875 623.9418334960938 682.5543212890625 624.24853515625 682.087646484375 624.4951782226562 C 681.6209716796875 624.7418212890625 681.0476684570312 624.8651733398438 680.3676147460938 624.8651733398438 L 668.7976684570312 624.8651733398438 C 668.57763671875 624.8651733398438 668.3743286132812 624.8251953125 668.1876220703125 624.7451782226562 C 668.0009765625 624.6718139648438 667.8409423828125 624.565185546875 667.7076416015625 624.4251708984375 C 667.567626953125 624.2918701171875 667.4576416015625 624.1284790039062 667.3776245117188 623.9351806640625 C 667.3043212890625 623.74853515625 667.2676391601562 623.545166015625 667.2676391601562 623.3251953125 L 667.2676391601562 609.5951538085938 C 667.2676391601562 609.3818359375 667.3043212890625 609.1818237304688 667.3776245117188 608.9951782226562 C 667.4576416015625 608.8085327148438 667.567626953125 608.6452026367188 667.7076416015625 608.5051879882812 C 667.8409423828125 608.3651733398438 668.0009765625 608.2551879882812 668.1876220703125 608.1751708984375 C 668.3743286132812 608.1018676757812 668.57763671875 608.065185546875 668.7976684570312 608.065185546875 L 678.9976196289062 608.065185546875 C 679.3709716796875 608.065185546875 679.77099609375 608.1284790039062 680.1976318359375 608.2551879882812 C 680.6309814453125 608.3884887695312 681.0309448242188 608.6018676757812 681.3976440429688 608.8952026367188 C 681.77099609375 609.1884765625 682.0809936523438 609.5718383789062 682.32763671875 610.045166015625 C 682.5742797851562 610.5118408203125 682.6976318359375 611.0851440429688 682.6976318359375 611.7651977539062 L 682.6976318359375 612.3351440429688 C 682.6976318359375 612.8751831054688 682.607666015625 613.4552001953125 682.4276123046875 614.0751953125 C 682.2476196289062 614.6951904296875 681.9576416015625 615.28515625 681.5576171875 615.8451538085938 C 681.904296875 616.0518188476562 682.2276611328125 616.30517578125 682.5276489257812 616.6051635742188 C 682.82763671875 616.8984985351562 683.0909423828125 617.2418212890625 683.317626953125 617.6351928710938 C 683.5443115234375 618.0285034179688 683.7243041992188 618.468505859375 683.857666015625 618.9552001953125 C 683.990966796875 619.448486328125 684.0576171875 619.9918212890625 684.0576171875 620.5851440429688 L 684.0576171875 621.1751708984375 M 681.0076293945312 620.5851440429688 C 681.0076293945312 620.1851806640625 680.9443359375 619.8284912109375 680.817626953125 619.5151977539062 C 680.6976318359375 619.2018432617188 680.5242919921875 618.9318237304688 680.2976684570312 618.7052001953125 C 680.0709838867188 618.478515625 679.7976684570312 618.3018188476562 679.4776611328125 618.1751708984375 C 679.1576538085938 618.05517578125 678.7976684570312 617.9951782226562 678.3976440429688 617.9951782226562 L 671.5276489257812 617.9951782226562 L 671.5276489257812 614.9251708984375 L 677.0276489257812 614.9251708984375 C 677.4276123046875 614.9251708984375 677.7876586914062 614.8651733398438 678.107666015625 614.7451782226562 C 678.4276123046875 614.6251831054688 678.7009887695312 614.4518432617188 678.9276123046875 614.2251586914062 C 679.154296875 613.99853515625 679.32763671875 613.7251586914062 679.4476318359375 613.4051513671875 C 679.567626953125 613.0918579101562 679.6276245117188 612.7351684570312 679.6276245117188 612.3351440429688 L 679.6276245117188 611.7651977539062 C 679.6276245117188 611.3251953125 679.4176635742188 611.1051635742188 678.9976196289062 611.1051635742188 L 670.3076171875 611.1051635742188 L 670.3076171875 621.815185546875 L 680.3676147460938 621.815185546875 C 680.4209594726562 621.815185546875 680.4876098632812 621.8118286132812 680.567626953125 621.80517578125 C 680.6409912109375 621.7985229492188 680.7109985351562 621.775146484375 680.7776489257812 621.7351684570312 C 680.837646484375 621.6951904296875 680.8909912109375 621.6284790039062 680.9376220703125 621.53515625 C 680.9843139648438 621.4418334960938 681.0076293945312 621.315185546875 681.0076293945312 621.1551513671875 L 681.0076293945312 620.5851440429688 ZM 704.3448486328125 618.065185546875 C 704.3448486328125 619.0918579101562 704.168212890625 620.03515625 703.8148803710938 620.8952026367188 C 703.4615478515625 621.7551879882812 702.9715576171875 622.4951782226562 702.3448486328125 623.1151733398438 C 701.724853515625 623.7418212890625 700.98486328125 624.228515625 700.1248779296875 624.5751953125 C 699.2715454101562 624.9218139648438 698.341552734375 625.0951538085938 697.3348999023438 625.0951538085938 L 693.2048950195312 625.0951538085938 C 692.1981811523438 625.0951538085938 691.264892578125 624.9218139648438 690.4048461914062 624.5751953125 C 689.5448608398438 624.228515625 688.8048706054688 623.7418212890625 688.1848754882812 623.1151733398438 C 687.5582275390625 622.4951782226562 687.0682373046875 621.7551879882812 686.7149047851562 620.8952026367188 C 686.3548583984375 620.03515625 686.1748657226562 619.0918579101562 686.1748657226562 618.065185546875 L 686.1748657226562 614.8551635742188 C 686.1748657226562 613.8418579101562 686.3548583984375 612.90185546875 686.7149047851562 612.03515625 C 687.0682373046875 611.1751708984375 687.5582275390625 610.4351806640625 688.1848754882812 609.815185546875 C 688.8048706054688 609.1951904296875 689.5448608398438 608.70849609375 690.4048461914062 608.3551635742188 C 691.264892578125 608.0018310546875 692.1981811523438 607.8251953125 693.2048950195312 607.8251953125 L 697.3348999023438 607.8251953125 C 698.341552734375 607.8251953125 699.2715454101562 608.0018310546875 700.1248779296875 608.3551635742188 C 700.98486328125 608.70849609375 701.724853515625 609.1951904296875 702.3448486328125 609.815185546875 C 702.9715576171875 610.4351806640625 703.4615478515625 611.1751708984375 703.8148803710938 612.03515625 C 704.168212890625 612.90185546875 704.3448486328125 613.8418579101562 704.3448486328125 614.8551635742188 L 704.3448486328125 618.065185546875 M 701.2948608398438 614.8551635742188 C 701.2948608398438 614.2551879882812 701.1981811523438 613.7118530273438 701.0048828125 613.2251586914062 C 700.8182373046875 612.7318115234375 700.5482177734375 612.3118286132812 700.1948852539062 611.9651489257812 C 699.8482055664062 611.6185302734375 699.4315185546875 611.3485107421875 698.9448852539062 611.1551513671875 C 698.4581909179688 610.968505859375 697.9215698242188 610.8751831054688 697.3348999023438 610.8751831054688 L 693.2048950195312 610.8751831054688 C 692.611572265625 610.8751831054688 692.071533203125 610.968505859375 691.5848999023438 611.1551513671875 C 691.0982055664062 611.3485107421875 690.67822265625 611.6185302734375 690.3248901367188 611.9651489257812 C 689.9715576171875 612.3118286132812 689.7015380859375 612.7318115234375 689.514892578125 613.2251586914062 C 689.321533203125 613.7118530273438 689.224853515625 614.2551879882812 689.224853515625 614.8551635742188 L 689.224853515625 618.065185546875 C 689.224853515625 618.6718139648438 689.321533203125 619.218505859375 689.514892578125 619.7052001953125 C 689.7015380859375 620.1918334960938 689.9715576171875 620.6085205078125 690.3248901367188 620.9552001953125 C 690.67822265625 621.3018188476562 691.0982055664062 621.5718383789062 691.5848999023438 621.7651977539062 C 692.071533203125 621.95849609375 692.611572265625 622.05517578125 693.2048950195312 622.05517578125 L 697.3148803710938 622.05517578125 C 697.908203125 622.05517578125 698.4481811523438 621.95849609375 698.9348754882812 621.7651977539062 C 699.4215698242188 621.5718383789062 699.841552734375 621.3018188476562 700.1948852539062 620.9552001953125 C 700.5482177734375 620.6085205078125 700.8182373046875 620.1918334960938 701.0048828125 619.7052001953125 C 701.1981811523438 619.218505859375 701.2948608398438 618.6718139648438 701.2948608398438 618.065185546875 L 701.2948608398438 614.8551635742188 ZM 722.3082275390625 611.1051635742188 L 715.5881958007812 611.1051635742188 L 715.5881958007812 624.8651733398438 L 712.5482177734375 624.8651733398438 L 712.5482177734375 611.1051635742188 L 705.8181762695312 611.1051635742188 L 705.8181762695312 608.065185546875 L 722.3082275390625 608.065185546875 L 722.3082275390625 611.1051635742188 Z" transform="matrix(4.831059455871582, 0, 0, 4.831059455871582, -2748.732666015625, -2194.586669921875)" style="fill: rgb(138, 198, 255); white-space: pre; color: rgb(51, 51, 51);"/><g transform="matrix(0.9743706583976744, 0, 0, 0.9743706583976744, -523.3058527712178, -112.46902003832754)"><path class="st8" d="M1282.3,607.7H1033c-10.5,0-19,8.5-19,19v159.1c0,10.5,8.5,19,19,19h156.8c-2,11.7-2.6,26.5-31.6,49.9&#10;&#9;c0,0,49-3.9,77.5-49.9h46.7c10.5,0,19-8.5,19-19V626.7C1301.3,616.2,1292.8,607.7,1282.3,607.7z" style="fill: rgb(237, 30, 48); stroke: rgb(234, 247, 253); stroke-width: 10; stroke-linejoin: round; stroke-miterlimit: 10;" transform="matrix(1, 0, 0, 1, 0, 0)"/></g></svg>